<?xml version="1.0" encoding="iso-8859-1"?>
<!-- Generator: Adobe Illustrator 19.0.0, SVG Export Plug-In . SVG Version: 6.00 Build 0)  -->
<svg version="1.1" id="Capa_1" xmlns="http://www.w3.org/2000/svg" xmlns:xlink="http://www.w3.org/1999/xlink" x="0px" y="0px"
	 viewBox="0 0 490 490" style="enable-background:new 0 0 490 490;" xml:space="preserve">
<g>
	<path d="M245,0C109.909,0,0,109.909,0,245s109.909,245,245,245s245-109.909,245-245S380.091,0,245,0z M245,474.688
		C118.35,474.688,15.313,371.65,15.313,245S118.35,15.313,245,15.313S474.688,118.35,474.688,245S371.65,474.688,245,474.688z"/>
	<path d="M245,28.449C125.595,28.449,28.449,125.595,28.449,245S125.595,461.551,245,461.551S461.551,364.405,461.551,245
		S364.405,28.449,245,28.449z M245,446.238c-110.963,0-201.238-90.275-201.238-201.238S134.037,43.762,245,43.762
		S446.238,134.037,446.238,245S355.963,446.238,245,446.238z"/>
	<path d="M335.223,299.184v-78.626h-49.347v78.626l-28.718-29.249l-35.261,34.356l88.652,90.297l88.652-90.297l-35.261-34.356
		L335.223,299.184z M377.504,304.53l-66.955,68.196l-66.955-68.196l13.324-12.987l44.27,45.085V235.871h18.722v100.757l44.27-45.085
		L377.504,304.53z"/>
	<path d="M268.103,185.784l-88.645-90.297l-88.652,90.297l35.261,34.371l28.711-29.249v78.619h49.354v-78.619l28.711,29.249
		L268.103,185.784z M188.819,153.447v100.765H170.09V153.447l-44.263,45.085l-13.324-12.987l66.955-68.196l66.947,68.196
		l-13.324,12.987L188.819,153.447z"/>
</g>
<g>
</g>
<g>
</g>
<g>
</g>
<g>
</g>
<g>
</g>
<g>
</g>
<g>
</g>
<g>
</g>
<g>
</g>
<g>
</g>
<g>
</g>
<g>
</g>
<g>
</g>
<g>
</g>
<g>
</g>
</svg>
