<?xml version="1.0" encoding="UTF-8"?>
<!-- Generator: Adobe Illustrator 19.2.1, SVG Export Plug-In . SVG Version: 6.00 Build 0)  -->
<svg version="1.1" id="Layer_1" xmlns="http://www.w3.org/2000/svg" xmlns:xlink="http://www.w3.org/1999/xlink" x="0px" y="0px" viewBox="0 0 291.5 236.6" style="enable-background:new 0 0 291.5 236.6;" xml:space="preserve">
<style type="text/css">
	.st0{fill:#F6D05C;}
	.st1{fill:#E8242E;}
	.st2{fill:#F5D362;}
</style>
<g>
	<path class="st0" d="M60,120.2l-18.8-18.8C69,73.5,106.1,58.2,145.5,58.2s76.5,15.3,104.3,43.2L231,120.2   c-22.8-22.8-53.2-35.3-85.5-35.3C113.2,84.9,82.8,97.4,60,120.2z"/>
	<path class="st0" d="M189,162.2c-11.6-11.6-27-18-43.5-18c-16.4,0-31.9,6.4-43.5,18l-18.8-18.8c16.6-16.6,38.8-25.8,62.3-25.8l0,0   c23.6,0,45.7,9.2,62.3,25.8L189,162.2z"/>
	<path class="st0" d="M272.2,79C202.4,9.2,88.7,9.2,18.8,79L0,60.2C80.2-20,210.8-20,291.1,60.2L272.2,79z"/>
	<path class="st1" d="M290.7,59.4c-1.1-1.1-2.8-1.2-4-0.3l-134.7,106c-11.5-2.1-23.2,1.4-31.6,9.6c-14.2,13.8-14.5,36.7-0.7,50.9   c7,7.2,16.4,10.9,25.8,10.9c9.1,0,18.1-3.4,25.1-10.2c8.4-8.2,12.2-19.8,10.5-31.3L290.8,63.4C291.8,62.2,291.7,60.5,290.7,59.4z"/>
	<path class="st2" d="M167.6,199c1,12.3-8.3,23.1-20.6,24s-23.1-8.3-24.1-20.6s8.3-23.1,20.6-24C155.8,177.4,166.6,186.6,167.6,199z   "/>
</g>
</svg>